<svg xmlns="http://www.w3.org/2000/svg" viewBox="0 0 309.81 304.92"><defs><style>.cls-1{fill:#fffce9;}.cls-2{fill:#2f2f41;}.cls-3{fill:#fdeaee;}.cls-4{fill:#eceff1;}.cls-5{fill:#f3e5f2;}.cls-6{fill:#e8f3e8;}.cls-7{fill:#e3f2fd;}.cls-8{fill:#e0f1f0;}.cls-9{fill:#fff3e0;}.cls-10{fill:#9e616a;}.cls-11{fill:#f6b4b7;}.cls-12{fill:#f6b6b8;}.cls-13{fill:#f6b7b9;}.cls-14{fill:#ec6580;}</style></defs><g id="Capa_2" data-name="Capa 2"><g id="Capa_1-2" data-name="Capa 1"><g id="undraw_team_re_0bfe" data-name="undraw team re 0bfe"><path id="Trazado_37" data-name="Trazado 37" class="cls-1" d="M45.27,104A45.28,45.28,0,1,1,0,149.24H0A45.27,45.27,0,0,1,45.27,104Z"/><circle id="Elipse_2" data-name="Elipse 2" class="cls-2" cx="45.68" cy="133.08" r="18.05"/><path id="Trazado_1" data-name="Trazado 1" class="cls-3" d="M90.79,45.35A45.15,45.15,0,1,1,77.62,13.28,45.15,45.15,0,0,1,90.79,45.35Z"/><path id="Trazado_38" data-name="Trazado 38" class="cls-4" d="M152.7,104a45.28,45.28,0,1,1-45.27,45.27h0A45.27,45.27,0,0,1,152.7,104Z"/><circle id="Elipse_4" data-name="Elipse 4" class="cls-5" cx="152.57" cy="45.27" r="45.27"/><path id="Trazado_36" data-name="Trazado 36" class="cls-6" d="M262.91,0a45.27,45.27,0,1,1-45.28,45.27h0A45.27,45.27,0,0,1,262.91,0Z"/><path id="Trazado_39" data-name="Trazado 39" class="cls-7" d="M264.54,104a45.28,45.28,0,1,1-45.27,45.27h0A45.27,45.27,0,0,1,264.54,104Z"/><path id="Trazado_2" data-name="Trazado 2" class="cls-8" d="M90.79,259.65a45.09,45.09,0,1,1-13.2-32.07A45.07,45.07,0,0,1,90.79,259.65Z"/><path id="Trazado_40" data-name="Trazado 40" class="cls-9" d="M155.48,214.37a45.28,45.28,0,1,1-45.27,45.28h0A45.27,45.27,0,0,1,155.48,214.37Z"/><path id="Trazado_3" data-name="Trazado 3" class="cls-2" d="M24.53,30.54c1.88-6,6.13-11.43,12-13.45s14.51,1.06,18.94,5.47c8.1,8.07,10.07,35.79,4.51,44.55-1.11-.06-4.93-.1-6-.15l-1.58-5.28v5.23c-1.79-.06-3.58-.09-5.4-.11A23.47,23.47,0,0,1,23.8,43.9C23.65,38.09,23.8,32.9,24.53,30.54Z"/><circle id="Elipse_8" data-name="Elipse 8" class="cls-10" cx="44.85" cy="37.42" r="12.9"/><path id="Trazado_4" data-name="Trazado 4" class="cls-2" d="M33.71,26.08l14.86-7.43h0A18.64,18.64,0,0,1,59.5,34.12l.37,4.43L53.65,37,53,31.29l-1.06,5.23L49,35.79l0-8.8-2.87,8.8L35.94,33.43Z"/><circle id="Elipse_9" data-name="Elipse 9" class="cls-2" cx="140.27" cy="125.87" r="6.39"/><circle id="Elipse_10" data-name="Elipse 10" class="cls-2" cx="150.49" cy="140.35" r="16.19"/><circle id="Elipse_11" data-name="Elipse 11" class="cls-10" cx="151.84" cy="143.38" r="13.16"/><path id="Trazado_5" data-name="Trazado 5" class="cls-2" d="M160.77,130a15.08,15.08,0,0,0-22.92,13.15c6.7,1.69,13.75,3,20.91.41l1.68-4.14,1,4.14c2.18.89,4.36,1.64,6.55,0A15.39,15.39,0,0,0,160.77,130Z"/><path id="Trazado_6" data-name="Trazado 6" class="cls-2" d="M134.32,108.52a13,13,0,0,0-13.64,2.1A14.76,14.76,0,0,0,116,123.77c.72,4.91,3.71,9.14,6.46,13.27s5.43,8.65,5.43,13.61a13.49,13.49,0,0,1-13.47,13.48c4.2,1.81,8.57,3.65,13.13,3.43s9.34-3.14,10.08-7.65c.54-3.24-1.05-6.41-2.38-9.42a66.79,66.79,0,0,1-4.66-15.32,15.48,15.48,0,0,1,.09-7.59,8.92,8.92,0,0,1,8.86-5.85l1.5-1.36A11.71,11.71,0,0,0,134.32,108.52Z"/><path id="Trazado_7" data-name="Trazado 7" class="cls-2" d="M244.43,27.56a42.28,42.28,0,0,1-3,9.69c-8,16.89,14.76,11.39,22.89,11.39,8.88,0,17.39,4.67,16.09-16.09-.56-8.87-7.2-16.09-16.09-16.09C256.69,16.46,246,19.83,244.43,27.56Z"/><circle id="Elipse_12" data-name="Elipse 12" class="cls-11" cx="262.95" cy="35.56" r="13.07"/><path id="Trazado_8" data-name="Trazado 8" class="cls-2" d="M254.07,22.23A15,15,0,0,1,276.84,35.3c-6.66,1.67-13.66,3-20.77.4l-1.67-4.1-1,4.1c-2.17.89-4.34,1.64-6.5,0a15.3,15.3,0,0,1,7.16-13.47Z"/><circle id="Elipse_13" data-name="Elipse 13" class="cls-12" cx="45.68" cy="137.38" r="16.13"/><circle id="ab6171fa-7d69-4734-b81c-8dff60f9761b" class="cls-10" cx="154.48" cy="250.61" r="13.73"/><circle id="Elipse_14" data-name="Elipse 14" class="cls-12" cx="154.41" cy="35.13" r="14.76"/><path id="bf427902-b9bf-4946-b5d7-5c1c7e04535e" class="cls-2" d="M167.41,25.38s3.85-7.35-4.61-8c0,0-7.21-6.54-14.56-1.2a7.39,7.39,0,0,0-6.2,4.53s-3.15-1.2-3.84,2c0,0-2.31,6.68,0,12.7s3.07,6.68,3.07,6.68-1.62-7.46,7.61-8.13,17.69-6.45,18.46.9,1.61,4,1.61,4S176.25,28.38,167.41,25.38Z"/><circle id="Elipse_15" data-name="Elipse 15" class="cls-11" cx="263.29" cy="140.4" r="14.45"/><path id="Trazado_9" data-name="Trazado 9" class="cls-2" d="M64,248.81h0l-.22.4c2-4.91.18-11-3.38-14.67s-8.5-5.4-13.37-6.07a21.66,21.66,0,0,0-10.8.84c-5,1.92-8.78,6.35-11.95,11-1.45,2.11-2.88,4.52-2.74,7.16.14,2.45,1.59,4.53,2.78,6.61s2.19,4.65,1.33,6.92a13.39,13.39,0,0,1-2.46,3.43,4.63,4.63,0,0,0-1.17,4,3.26,3.26,0,0,0,2.43,2.1,8.51,8.51,0,0,0,3.22-.07l27.75-4.2a11.83,11.83,0,0,0,9.93-13.46A12.08,12.08,0,0,0,64,248.81Z"/><circle id="Elipse_16" data-name="Elipse 16" class="cls-13" cx="43.39" cy="252.47" r="13.57"/><path id="Trazado_10" data-name="Trazado 10" class="cls-14" d="M79.51,289.54a45.26,45.26,0,0,1-63.34,4.57l3.89-10.83a11.64,11.64,0,0,1,9.9-6.8l2.47-.15,5.89-5.08s15.87-.57,15.63-.84l9.62,5.78v0l3.78.23a11.67,11.67,0,0,1,9.9,6.8Z"/><path id="Trazado_11" data-name="Trazado 11" class="cls-14" d="M188.86,289.54a45.26,45.26,0,0,1-63.34,4.57l3.88-10.83a11.67,11.67,0,0,1,9.9-6.8l2.47-.15,5.89-5.08s15.87-.57,15.64-.84l9.61,5.78v0l3.78.23a11.64,11.64,0,0,1,9.9,6.8Z"/><path id="Trazado_12" data-name="Trazado 12" class="cls-2" d="M56.26,239.87c-.35-1.85-2.24-2.7-3.86-3.11A37.27,37.27,0,0,0,38,236c-3.5.5-7.08,1.6-9.62,4.33a12.92,12.92,0,0,0-3.27,8.34,10,10,0,0,0,1.19,5.29,4.92,4.92,0,0,0,4.08,2.63l.16.56a24.65,24.65,0,0,0,17.12-11.47,14.62,14.62,0,0,1-4.29,6.94,26.73,26.73,0,0,0,11.55-8.9A5.06,5.06,0,0,0,56.26,239.87Z"/><path id="Trazado_13" data-name="Trazado 13" class="cls-14" d="M79.11,179a45.26,45.26,0,0,1-63.34,4.58l3.89-10.84a11.64,11.64,0,0,1,9.9-6.8l2.47-.15,5.89-5.08s15.87-.56,15.63-.84l9.62,5.79v0l3.78.23a11.65,11.65,0,0,1,9.9,6.8Z"/><path id="Trazado_14" data-name="Trazado 14" class="cls-14" d="M186.76,179.53a45.24,45.24,0,0,1-63.33,4.58l3.88-10.83a11.64,11.64,0,0,1,9.9-6.8l2.47-.16,5.89-5.08s15.87-.56,15.63-.83l9.62,5.78v0l3.78.23a11.64,11.64,0,0,1,9.9,6.8Z"/><path id="Trazado_15" data-name="Trazado 15" class="cls-14" d="M298.51,179.53a45.26,45.26,0,0,1-63.34,4.58l3.88-10.83a11.65,11.65,0,0,1,9.9-6.8l2.47-.16,5.89-5.08s15.87-.56,15.64-.83l9.61,5.78v0l3.78.23a11.64,11.64,0,0,1,9.9,6.8Z"/><path id="Trazado_16" data-name="Trazado 16" class="cls-14" d="M79.11,75.23a45.26,45.26,0,0,1-63.34,4.58L19.66,69a11.64,11.64,0,0,1,9.9-6.8L32,62l5.89-5.08s15.87-.57,15.63-.84l9.62,5.79v0l3.78.23a11.65,11.65,0,0,1,9.9,6.8Z"/><path id="Trazado_17" data-name="Trazado 17" class="cls-14" d="M186.36,75.37A45.24,45.24,0,0,1,123,80l3.88-10.83a11.65,11.65,0,0,1,9.9-6.8l2.47-.16,5.89-5.08s15.87-.56,15.63-.83L170.42,62v0l3.78.23a11.67,11.67,0,0,1,9.9,6.8Z"/><path id="Trazado_18" data-name="Trazado 18" class="cls-14" d="M298.11,75.37A45.26,45.26,0,0,1,234.77,80l3.88-10.83a11.65,11.65,0,0,1,9.9-6.8l2.47-.16,5.89-5.08s15.87-.56,15.64-.83L282.16,62v0l3.78.23a11.64,11.64,0,0,1,9.9,6.8Z"/><path id="Trazado_19" data-name="Trazado 19" class="cls-2" d="M278.53,131.44a18.62,18.62,0,0,0-7.8-10.62c-3-1.94-6.82-2.93-10.25-1.9s-6.29,4.4-6.06,8a3.52,3.52,0,0,0-3.56,1.1,8.27,8.27,0,0,0-1.75,3.53,22.43,22.43,0,0,0,.22,12.45l-.07.58a5.66,5.66,0,0,0,3.74-3.25c.79-1.53,1.24-3.23,2.1-4.73a5.12,5.12,0,0,1,4-2.87l-.15,2.6,4.38-2.26-1,2.49,3.82-1.6-.42,2.4a5.7,5.7,0,0,1,7.61-2.65l.23.12a7.56,7.56,0,0,1,3.09,4.35,23.14,23.14,0,0,1,.74,5.43A18.94,18.94,0,0,0,278.53,131.44Z"/><path id="Trazado_20" data-name="Trazado 20" class="cls-2" d="M142,257a2.09,2.09,0,0,0-.08-.23,1.07,1.07,0,0,1-.16.14Z"/><path id="Trazado_21" data-name="Trazado 21" class="cls-2" d="M170.93,245.72a9.84,9.84,0,0,0-3.68-7.2,9,9,0,0,1-2.26-2,14.51,14.51,0,0,1-.77-1.92,6.4,6.4,0,0,0-6.75-3.46,10.16,10.16,0,0,0-6.6,4.42,4.49,4.49,0,0,0-6.28,5.2c-1.4-1.12-3.66-.22-4.53,1.34a8.34,8.34,0,0,0-.47,5.26,49.8,49.8,0,0,0,2.33,9.41c1.36-1.2,1.28-3.37,1.11-5.22s-.07-4.25,1.6-5.2,3.58.09,5.36.61a10.12,10.12,0,0,0,8.39-1.32,26.16,26.16,0,0,1,2.76-1.92,3.26,3.26,0,0,1,3.2-.06,4.47,4.47,0,0,1,1.49,2.62l2.06,7a9.85,9.85,0,0,0,3-7.5Z"/><path id="Trazado_22" data-name="Trazado 22" class="cls-2" d="M62.7,131.72c.11-1.2.16-2.41.15-3.62a17,17,0,0,0-1.28-7A10.76,10.76,0,0,0,56,115.69a10.25,10.25,0,0,0-7.68,0A15.43,15.43,0,0,0,41,113,8.16,8.16,0,0,0,34,116a11.08,11.08,0,0,1-1.22,1.58c-1.29,1.2-3.25,1-5,.78l2.3,2-2.79.73,3.26,2c-3.15,1.89-4.59,6-4.2,9.76a20.57,20.57,0,0,0,4.12,9.68c.81-1.72.64-3.79.62-5.73a13.09,13.09,0,0,1,.12-1.88c6.92,1.66,14.15,2.72,21.48.09l1.48-3.6.62.06.85,3.54c1.93.79,3.87,1.48,5.81.76.09.54.15,1.1.19,1.64.17-.64.31-1.29.44-1.94a5.15,5.15,0,0,0,.74-.47A16.49,16.49,0,0,0,62.7,131.72Z"/></g></g></g></svg>