<svg xmlns="http://www.w3.org/2000/svg" xmlns:xlink="http://www.w3.org/1999/xlink" viewBox="37.73 151 90.54 90.94">   <g id="Grupo_15" data-name="Grupo 15" transform="translate(-775 -1196)">     <g id="Grupo_8" data-name="Grupo 8" transform="translate(131 152)">       <g id="Grupo_7" data-name="Grupo 7" transform="translate(-119.728 -95)">         <g id="Grupo_3" data-name="Grupo 3" transform="translate(206.177 167.945)">           <circle id="Elipse_20" data-name="Elipse 20" cx="45.272" cy="45.272" r="45.272" transform="translate(595.28 1122.055)" fill="#f2f2f2"></circle>           <circle id="Elipse_21" data-name="Elipse 21" cx="14.451" cy="14.451" r="14.451" transform="translate(624.851 1144.032)" fill="#ffb6b6"></circle>           <path id="Trazado_28" data-name="Trazado 28" d="M1195.728,683.371a45.256,45.256,0,0,1-63.338,4.577l3.883-10.835a11.652,11.652,0,0,1,9.9-6.8l2.47-.152,5.89-5.08s15.871-.567,15.636-.838l9.614,5.783-.008-.04,3.779.231a11.647,11.647,0,0,1,9.9,6.8Z" transform="translate(-521.212 514.245)" fill="#fe6680"></path>           <path id="Trazado_29" data-name="Trazado 29" d="M1209.223,528.759a18.632,18.632,0,0,0-7.8-10.616c-3.034-1.941-6.82-2.931-10.257-1.9s-6.283,4.4-6.058,8.044a3.526,3.526,0,0,0-3.559,1.1,8.161,8.161,0,0,0-1.746,3.536,22.479,22.479,0,0,0,.211,12.447l-.068.581a5.635,5.635,0,0,0,3.74-3.249c.791-1.533,1.246-3.234,2.1-4.729a5.13,5.13,0,0,1,3.979-2.876l-.15,2.6,4.383-2.258-1.043,2.494,3.828-1.6-.428,2.4a5.7,5.7,0,0,1,7.841-2.535,7.569,7.569,0,0,1,3.094,4.352,22.926,22.926,0,0,1,.741,5.432A19,19,0,0,0,1209.223,528.759Z" transform="translate(-554.68 620.762)" fill="#2f2e41"></path>         </g>       </g>     </g>   </g> </svg>