<svg xmlns="http://www.w3.org/2000/svg" xmlns:xlink="http://www.w3.org/1999/xlink" viewBox="287.23 151.17 90.31 90.61">    <g id="Grupo_15" data-name="Grupo 15" transform="translate(-775 -1196)">     <g id="Grupo_9" data-name="Grupo 9" transform="translate(381 152)">       <g id="Grupo_7-2" data-name="Grupo 7" transform="translate(-119.728 -95)">         <g id="Grupo_10" data-name="Grupo 10" transform="translate(-253.526 33.472)">           <path id="Trazado_24" data-name="Trazado 24" d="M390.852,141.435a45.155,45.155,0,1,1-13.169-32.07A45.272,45.272,0,0,1,390.852,141.435Z" transform="translate(753.946 1160.611)" fill="#f2f2f2"></path>           <path id="Trazado_25" data-name="Trazado 25" d="M384.334,168.464c1.872-5.966,6.129-11.438,12.016-13.454s14.508,1.055,18.935,5.467c8.1,8.069,10.072,35.788,4.51,44.548-1.106-.059-4.924-.1-6.044-.144l-1.584-5.28v5.228q-2.676-.083-5.394-.114a23.474,23.474,0,0,1-23.176-22.9C383.451,176.008,383.6,170.815,384.334,168.464Z" transform="translate(694.209 1118.775)" fill="#2f2e41"></path>           <circle id="Elipse_19" data-name="Elipse 19" cx="12.902" cy="12.902" r="12.902" transform="translate(1085.953 1281.207)" fill="#9e616a"></circle>           <path id="Trazado_26" data-name="Trazado 26" d="M418.646,313.934a45.256,45.256,0,0,1-63.338,4.577l3.883-10.835a11.652,11.652,0,0,1,9.9-6.8l2.47-.152,5.89-5.08s15.871-.567,15.636-.838l9.614,5.783-.008-.04,3.779.231a11.647,11.647,0,0,1,9.9,6.8Z" transform="translate(714.474 1017.991)" fill="#fe6680"></path>         </g>       </g>     </g>   </g> </svg>