<svg xmlns="http://www.w3.org/2000/svg" xmlns:xlink="http://www.w3.org/1999/xlink" viewBox="1 30.17 90.54 90.75">   <defs>     <filter id="Rectángulo_6" x="0" y="307.55" width="340" height="205" filterUnits="userSpaceOnUse">       <feOffset dy="3" input="SourceAlpha"></feOffset>       <feGaussianBlur stdDeviation="3" result="blur"></feGaussianBlur>       <feFlood flood-opacity="0.161"></feFlood>       <feComposite operator="in" in2="blur"></feComposite>       <feComposite in="SourceGraphic"></feComposite>     </filter>   </defs>   <g id="Grupo_12" data-name="Grupo 12" transform="translate(1 30.166)">     <circle id="Elipse_17" data-name="Elipse 17" cx="45.272" cy="45.272" r="45.272" fill="#f2f2f2"></circle>     <circle id="Elipse_18" data-name="Elipse 18" cx="14.762" cy="14.762" r="14.762" transform="translate(32.354 20.365)" fill="#ffb8b8"></circle>     <path id="bf427902-b9bf-4946-b5d7-5c1c7e04535e" d="M815.535,157.207s3.844-7.348-4.612-8.016c0,0-7.209-6.539-14.557-1.2a7.379,7.379,0,0,0-6.2,4.535s-3.152-1.2-3.845,2c0,0-2.307,6.68,0,12.692s3.073,6.68,3.073,6.68-1.618-7.46,7.607-8.128,17.689-6.447,18.458.9,1.614,4.029,1.614,4.029S824.375,160.213,815.535,157.207Z" transform="translate(-755.42 -131.832)" fill="#2f2e41"></path>     <path id="Trazado_23" data-name="Trazado 23" d="M798.529,314.443a45.256,45.256,0,0,1-63.338,4.577l3.883-10.835a11.652,11.652,0,0,1,9.9-6.8l2.47-.152,5.89-5.08s15.871-.567,15.636-.838l9.614,5.783-.008-.04,3.779.231a11.647,11.647,0,0,1,9.9,6.8Z" transform="translate(-719.462 -239.069)" fill="#fe6680"></path>   </g> </svg>