<svg xmlns="http://www.w3.org/2000/svg" xmlns:xlink="http://www.w3.org/1999/xlink" width="416" height="323" viewBox="0 0 416 323">
  <defs>
    <filter id="Rectángulo_6" x="0" y="118" width="166" height="205" filterUnits="userSpaceOnUse">
      <feOffset dy="3" input="SourceAlpha"/>
      <feGaussianBlur stdDeviation="3" result="blur"/>
      <feFlood flood-opacity="0.161"/>
      <feComposite operator="in" in2="blur"/>
      <feComposite in="SourceGraphic"/>
    </filter>
    <filter id="Rectángulo_6-2" x="250" y="118" width="166" height="205" filterUnits="userSpaceOnUse">
      <feOffset dy="3" input="SourceAlpha"/>
      <feGaussianBlur stdDeviation="3" result="blur-2"/>
      <feFlood flood-opacity="0.161"/>
      <feComposite operator="in" in2="blur-2"/>
      <feComposite in="SourceGraphic"/>
    </filter>
    <filter id="Rectángulo_6-3" x="127" y="0" width="166" height="205" filterUnits="userSpaceOnUse">
      <feOffset dy="3" input="SourceAlpha"/>
      <feGaussianBlur stdDeviation="3" result="blur-3"/>
      <feFlood flood-opacity="0.161"/>
      <feComposite operator="in" in2="blur-3"/>
      <feComposite in="SourceGraphic"/>
    </filter>
  </defs>
  <g id="Grupo_35" data-name="Grupo 35" transform="translate(-775 -1196)">
    <g id="Grupo_8" data-name="Grupo 8" transform="translate(131 152)">
      <g transform="matrix(1, 0, 0, 1, 644, 1044)" filter="url(#Rectángulo_6)">
        <rect id="Rectángulo_6-4" data-name="Rectángulo 6" width="148" height="187" rx="20" transform="translate(9 124)" fill="#fff"/>
      </g>
      <g id="Grupo_7" data-name="Grupo 7" transform="translate(-119.728 -95)">
        <g id="Grupo_3" data-name="Grupo 3" transform="translate(206.177 167.945)">
          <circle id="Elipse_20" data-name="Elipse 20" cx="45.272" cy="45.272" r="45.272" transform="translate(595.28 1122.055)" fill="#f2f2f2"/>
          <circle id="Elipse_21" data-name="Elipse 21" cx="14.451" cy="14.451" r="14.451" transform="translate(624.851 1144.032)" fill="#ffb6b6"/>
          <path id="Trazado_28" data-name="Trazado 28" d="M1195.728,683.371a45.256,45.256,0,0,1-63.338,4.577l3.883-10.835a11.652,11.652,0,0,1,9.9-6.8l2.47-.152,5.89-5.08s15.871-.567,15.636-.838l9.614,5.783-.008-.04,3.779.231a11.647,11.647,0,0,1,9.9,6.8Z" transform="translate(-521.212 514.245)" fill="#fe6680"/>
          <path id="Trazado_29" data-name="Trazado 29" d="M1209.223,528.759a18.632,18.632,0,0,0-7.8-10.616c-3.034-1.941-6.82-2.931-10.257-1.9s-6.283,4.4-6.058,8.044a3.526,3.526,0,0,0-3.559,1.1,8.161,8.161,0,0,0-1.746,3.536,22.479,22.479,0,0,0,.211,12.447l-.068.581a5.635,5.635,0,0,0,3.74-3.249c.791-1.533,1.246-3.234,2.1-4.729a5.13,5.13,0,0,1,3.979-2.876l-.15,2.6,4.383-2.258-1.043,2.494,3.828-1.6-.428,2.4a5.7,5.7,0,0,1,7.841-2.535,7.569,7.569,0,0,1,3.094,4.352,22.926,22.926,0,0,1,.741,5.432A19,19,0,0,0,1209.223,528.759Z" transform="translate(-554.68 620.762)" fill="#2f2e41"/>
        </g>
        <path id="Trazado_53" data-name="Trazado 53" d="M.234,0H8.892V-2.912H6.37V-18.2H.13v3.12H2.964V-2.912H.234ZM18.876-18.174,10.686-6.942,11-3.458h9.724V0H24.1V-3.458h2.132V-6.786H24.1V-18.174ZM14.56-6.786l6.162-8.424v8.424Zm17.16-3.64a4.587,4.587,0,1,1,9.152,0V-7.8a4.59,4.59,0,1,1-9.152,0ZM28.314-7.8c0,10.868,15.964,10.842,15.964,0v-2.626c0-10.842-15.964-10.868-15.964,0Z" transform="translate(846 1420)" fill="#133273"/>
        <path id="Trazado_50" data-name="Trazado 50" d="M0-13.056v-.295a7.258,7.258,0,0,1,6.063-7.16,7.3,7.3,0,0,1,6.327,2.027l.609.608.564-.608a7.388,7.388,0,0,1,6.373-2.027A7.257,7.257,0,0,1,26-13.35v.295A7.6,7.6,0,0,1,23.583-7.5L14.407,1.071A2.061,2.061,0,0,1,13,1.625a2.061,2.061,0,0,1-1.407-.554L2.417-7.5A7.6,7.6,0,0,1,0-13.056Z" transform="translate(811 1419)" fill="#fe6680"/>
      </g>
    </g>
    <g id="Grupo_9" data-name="Grupo 9" transform="translate(381 152)">
      <g transform="matrix(1, 0, 0, 1, 394, 1044)" filter="url(#Rectángulo_6-2)">
        <rect id="Rectángulo_6-5" data-name="Rectángulo 6" width="148" height="187" rx="20" transform="translate(259 124)" fill="#fff"/>
      </g>
      <g id="Grupo_7-2" data-name="Grupo 7" transform="translate(-119.728 -95)">
        <path id="Trazado_54" data-name="Trazado 54" d="M12.48-5.746c0,1.976-2.08,3.094-4.134,3.068-1.95,0-4.082-.806-4.082-2.418H.832C.832-1.274,4.446.286,8.4.286c3.744,0,7.488-1.9,7.488-5.954v-6.786c0-4.082-3.874-6.084-7.592-6.084-3.666,0-7.54,2-7.54,6.032,0,4.524,3.848,6.058,7.514,6.058A5.387,5.387,0,0,0,12.48-8.372v2.626ZM8.294-15.47c2.236,0,4.16.962,4.186,2.964.026,2.028-1.924,3.068-4.212,3.068S4.16-10.5,4.16-12.506,6.136-15.47,8.294-15.47Zm13.442,5.044a4.587,4.587,0,1,1,9.152,0V-7.8a4.59,4.59,0,1,1-9.152,0ZM18.33-7.8c0,10.868,15.964,10.842,15.964,0v-2.626c0-10.842-15.964-10.868-15.964,0Z" transform="translate(846 1420)" fill="#133273"/>
        <path id="Trazado_51" data-name="Trazado 51" d="M0-13.056v-.295a7.258,7.258,0,0,1,6.063-7.16,7.3,7.3,0,0,1,6.327,2.027l.609.608.564-.608a7.388,7.388,0,0,1,6.373-2.027A7.257,7.257,0,0,1,26-13.35v.295A7.6,7.6,0,0,1,23.583-7.5L14.407,1.071A2.061,2.061,0,0,1,13,1.625a2.061,2.061,0,0,1-1.407-.554L2.417-7.5A7.6,7.6,0,0,1,0-13.056Z" transform="translate(811 1419)" fill="#fe6680"/>
        <g id="Grupo_10" data-name="Grupo 10" transform="translate(-253.526 33.472)">
          <path id="Trazado_24" data-name="Trazado 24" d="M390.852,141.435a45.155,45.155,0,1,1-13.169-32.07A45.272,45.272,0,0,1,390.852,141.435Z" transform="translate(753.946 1160.611)" fill="#f2f2f2"/>
          <path id="Trazado_25" data-name="Trazado 25" d="M384.334,168.464c1.872-5.966,6.129-11.438,12.016-13.454s14.508,1.055,18.935,5.467c8.1,8.069,10.072,35.788,4.51,44.548-1.106-.059-4.924-.1-6.044-.144l-1.584-5.28v5.228q-2.676-.083-5.394-.114a23.474,23.474,0,0,1-23.176-22.9C383.451,176.008,383.6,170.815,384.334,168.464Z" transform="translate(694.209 1118.775)" fill="#2f2e41"/>
          <circle id="Elipse_19" data-name="Elipse 19" cx="12.902" cy="12.902" r="12.902" transform="translate(1085.953 1281.207)" fill="#9e616a"/>
          <path id="Trazado_26" data-name="Trazado 26" d="M418.646,313.934a45.256,45.256,0,0,1-63.338,4.577l3.883-10.835a11.652,11.652,0,0,1,9.9-6.8l2.47-.152,5.89-5.08s15.871-.567,15.636-.838l9.614,5.783-.008-.04,3.779.231a11.647,11.647,0,0,1,9.9,6.8Z" transform="translate(714.474 1017.991)" fill="#fe6680"/>
        </g>
      </g>
    </g>
    <g id="Grupo_11" data-name="Grupo 11" transform="translate(258 34)">
      <g transform="matrix(1, 0, 0, 1, 517, 1162)" filter="url(#Rectángulo_6-3)">
        <rect id="Rectángulo_6-6" data-name="Rectángulo 6" width="148" height="187" rx="20" transform="translate(136 6)" fill="#fff"/>
      </g>
      <g id="Grupo_7-3" data-name="Grupo 7" transform="translate(-119.728 -95)">
        <path id="Trazado_52" data-name="Trazado 52" d="M4.446-12.922c.026-1.638,1.872-2.548,3.666-2.548,2.34,0,4.134.936,4.134,2.912,0,2.106-2.522,2.34-3.9,2.34C4.758-10.218.962-8.97.962-4.784V0H15.7V-3.2H4.394v-1.56c0-1.976,2.444-2.366,3.952-2.366,3.822,0,7.306-.884,7.306-5.512,0-4.316-3.952-5.8-7.592-5.8-3.354,0-6.994,1.664-7.02,5.512ZM24.96-7.93c3.276,0,3.874,1.352,3.874,2.444,0,1.95-2.314,2.678-4.056,2.678-1.482,0-4-.65-4-2.522H17.316C17.342-1.2,21.294.26,24.752.26c3.51,0,7.7-1.326,7.7-5.772a4.327,4.327,0,0,0-2.964-3.822,3.835,3.835,0,0,0,2.522-3.588c-.026-3.874-3.718-5.538-7.15-5.538C21.5-18.46,17.6-17.03,17.6-13.1h3.432c0-1.664,2.184-2.236,3.8-2.236,2.912,0,3.744,1.378,3.744,2.418-.026,1.69-1.976,2.184-3.822,2.184H22.126V-7.93Zm13.26-2.5a4.587,4.587,0,1,1,9.152,0V-7.8a4.59,4.59,0,1,1-9.152,0ZM34.814-7.8c0,10.868,15.964,10.842,15.964,0v-2.626c0-10.842-15.964-10.868-15.964,0Z" transform="translate(846 1420)" fill="#133273"/>
        <path id="Trazado_49" data-name="Trazado 49" d="M0-13.056v-.295a7.258,7.258,0,0,1,6.063-7.16,7.3,7.3,0,0,1,6.327,2.027l.609.608.564-.608a7.388,7.388,0,0,1,6.373-2.027A7.257,7.257,0,0,1,26-13.35v.295A7.6,7.6,0,0,1,23.583-7.5L14.407,1.071A2.061,2.061,0,0,1,13,1.625a2.061,2.061,0,0,1-1.407-.554L2.417-7.5A7.6,7.6,0,0,1,0-13.056Z" transform="translate(811 1419)" fill="#fe6680"/>
        <g id="Grupo_12" data-name="Grupo 12" transform="translate(-138.577 78.922)">
          <circle id="Elipse_17" data-name="Elipse 17" cx="45.272" cy="45.272" r="45.272" transform="translate(939.306 1211.244)" fill="#f2f2f2"/>
          <circle id="Elipse_18" data-name="Elipse 18" cx="14.762" cy="14.762" r="14.762" transform="translate(971.66 1231.609)" fill="#ffb8b8"/>
          <path id="bf427902-b9bf-4946-b5d7-5c1c7e04535e" d="M815.535,157.207s3.844-7.348-4.612-8.016c0,0-7.209-6.539-14.557-1.2a7.379,7.379,0,0,0-6.2,4.535s-3.152-1.2-3.845,2c0,0-2.307,6.68,0,12.692s3.073,6.68,3.073,6.68-1.618-7.46,7.607-8.128,17.689-6.447,18.458.9,1.614,4.029,1.614,4.029S824.375,160.213,815.535,157.207Z" transform="translate(183.886 1079.412)" fill="#2f2e41"/>
          <path id="Trazado_23" data-name="Trazado 23" d="M798.529,314.443a45.256,45.256,0,0,1-63.338,4.577l3.883-10.835a11.652,11.652,0,0,1,9.9-6.8l2.47-.152,5.89-5.08s15.871-.567,15.636-.838l9.614,5.783-.008-.04,3.779.231a11.647,11.647,0,0,1,9.9,6.8Z" transform="translate(219.844 972.175)" fill="#fe6680"/>
        </g>
        <path id="Trazado_48" data-name="Trazado 48" d="M27-14.625a1.875,1.875,0,0,1-1.875,1.875c-.012,0-.021-.006-.033-.006L22.724.27A1.5,1.5,0,0,1,21.248,1.5H5.752A1.5,1.5,0,0,1,4.276.269L1.908-12.755a.6.6,0,0,1-.075,0A1.875,1.875,0,0,1-.042-14.625,1.9,1.9,0,0,1,1.833-16.5a1.9,1.9,0,0,1,1.875,1.875,1.832,1.832,0,0,1-.4,1.1l4.2,3.361a1.5,1.5,0,0,0,2.279-.5l2.7-5.4a1.848,1.848,0,0,1-.9-1.565A1.911,1.911,0,0,1,13.5-19.5a1.839,1.839,0,0,1,1.833,1.875,1.846,1.846,0,0,1-.9,1.566l2.7,5.4a1.5,1.5,0,0,0,2.279.5l4.2-3.361a2.232,2.232,0,0,1-.358-1.105A1.874,1.874,0,0,1,25.125-16.5,1.874,1.874,0,0,1,27-14.625Z" transform="translate(832.728 1299)" fill="#ffca28"/>
      </g>
    </g>
  </g>
</svg>
