<svg xmlns="http://www.w3.org/2000/svg" xmlns:xlink="http://www.w3.org/1999/xlink" width="416" height="323" viewBox="0 0 416 323"><defs><filter id="a" x="0" y="118" width="166" height="205" filterUnits="userSpaceOnUse"><feOffset dy="3" input="SourceAlpha"/><feGaussianBlur stdDeviation="3" result="b"/><feFlood flood-opacity="0.161"/><feComposite operator="in" in2="b"/><feComposite in="SourceGraphic"/></filter><filter id="c" x="250" y="118" width="166" height="205" filterUnits="userSpaceOnUse"><feOffset dy="3" input="SourceAlpha"/><feGaussianBlur stdDeviation="3" result="d"/><feFlood flood-opacity="0.161"/><feComposite operator="in" in2="d"/><feComposite in="SourceGraphic"/></filter><filter id="e" x="127" y="0" width="166" height="205" filterUnits="userSpaceOnUse"><feOffset dy="3" input="SourceAlpha"/><feGaussianBlur stdDeviation="3" result="f"/><feFlood flood-opacity="0.161"/><feComposite operator="in" in2="f"/><feComposite in="SourceGraphic"/></filter></defs><g transform="translate(-775 -1196)"><g transform="translate(131 152)"><g transform="matrix(1, 0, 0, 1, 644, 1044)" filter="url(#a)"><rect width="148" height="187" rx="20" transform="translate(9 124)" fill="#fff"/></g><g transform="translate(-119.728 -95)"><g transform="translate(206.177 167.945)"><circle cx="45.272" cy="45.272" r="45.272" transform="translate(595.28 1122.055)" fill="#f2f2f2"/><circle cx="14.451" cy="14.451" r="14.451" transform="translate(624.851 1144.032)" fill="#ffb6b6"/><path d="M1195.728,683.371a45.256,45.256,0,0,1-63.338,4.577l3.883-10.835a11.652,11.652,0,0,1,9.9-6.8l2.47-.152,5.89-5.08s15.871-.567,15.636-.838l9.614,5.783-.008-.04,3.779.231a11.647,11.647,0,0,1,9.9,6.8Z" transform="translate(-521.212 514.245)" fill="#fe6680"/><path d="M1209.223,528.759a18.632,18.632,0,0,0-7.8-10.616c-3.034-1.941-6.82-2.931-10.257-1.9s-6.283,4.4-6.058,8.044a3.526,3.526,0,0,0-3.559,1.1,8.161,8.161,0,0,0-1.746,3.536,22.479,22.479,0,0,0,.211,12.447l-.068.581a5.635,5.635,0,0,0,3.74-3.249c.791-1.533,1.246-3.234,2.1-4.729a5.13,5.13,0,0,1,3.979-2.876l-.15,2.6,4.383-2.258-1.043,2.494,3.828-1.6-.428,2.4a5.7,5.7,0,0,1,7.841-2.535,7.569,7.569,0,0,1,3.094,4.352,22.926,22.926,0,0,1,.741,5.432A19,19,0,0,0,1209.223,528.759Z" transform="translate(-554.68 620.762)" fill="#2f2e41"/></g><text transform="translate(846 1420)" fill="#133273" font-size="26" font-family="NexaBold, Nexa Bold"><tspan x="0" y="0">140</tspan></text><text transform="translate(811 1419)" fill="#fe6680" font-size="26" font-family="FontAwesome6Pro-Solid, 'Font Awesome \36  Pro'"><tspan x="0" y="0"></tspan></text></g></g><g transform="translate(381 152)"><g transform="matrix(1, 0, 0, 1, 394, 1044)" filter="url(#c)"><rect width="148" height="187" rx="20" transform="translate(259 124)" fill="#fff"/></g><g transform="translate(-119.728 -95)"><text transform="translate(846 1420)" fill="#133273" font-size="26" font-family="NexaBold, Nexa Bold"><tspan x="0" y="0">90</tspan></text><text transform="translate(811 1419)" fill="#fe6680" font-size="26" font-family="FontAwesome6Pro-Solid, 'Font Awesome \36  Pro'"><tspan x="0" y="0"></tspan></text><g transform="translate(-253.526 33.472)"><path d="M390.852,141.435a45.155,45.155,0,1,1-13.169-32.07A45.272,45.272,0,0,1,390.852,141.435Z" transform="translate(753.946 1160.611)" fill="#f2f2f2"/><path d="M384.334,168.464c1.872-5.966,6.129-11.438,12.016-13.454s14.508,1.055,18.935,5.467c8.1,8.069,10.072,35.788,4.51,44.548-1.106-.059-4.924-.1-6.044-.144l-1.584-5.28v5.228q-2.676-.083-5.394-.114a23.474,23.474,0,0,1-23.176-22.9C383.451,176.008,383.6,170.815,384.334,168.464Z" transform="translate(694.209 1118.775)" fill="#2f2e41"/><circle cx="12.902" cy="12.902" r="12.902" transform="translate(1085.953 1281.207)" fill="#9e616a"/><path d="M418.646,313.934a45.256,45.256,0,0,1-63.338,4.577l3.883-10.835a11.652,11.652,0,0,1,9.9-6.8l2.47-.152,5.89-5.08s15.871-.567,15.636-.838l9.614,5.783-.008-.04,3.779.231a11.647,11.647,0,0,1,9.9,6.8Z" transform="translate(714.474 1017.991)" fill="#fe6680"/></g></g></g><g transform="translate(258 34)"><g transform="matrix(1, 0, 0, 1, 517, 1162)" filter="url(#e)"><rect width="148" height="187" rx="20" transform="translate(136 6)" fill="#fff"/></g><g transform="translate(-119.728 -95)"><text transform="translate(846 1420)" fill="#133273" font-size="26" font-family="NexaBold, Nexa Bold"><tspan x="0" y="0">230</tspan></text><text transform="translate(811 1419)" fill="#fe6680" font-size="26" font-family="FontAwesome6Pro-Solid, 'Font Awesome \36  Pro'"><tspan x="0" y="0"></tspan></text><g transform="translate(-138.577 78.922)"><circle cx="45.272" cy="45.272" r="45.272" transform="translate(939.306 1211.244)" fill="#f2f2f2"/><circle cx="14.762" cy="14.762" r="14.762" transform="translate(971.66 1231.609)" fill="#ffb8b8"/><path d="M815.535,157.207s3.844-7.348-4.612-8.016c0,0-7.209-6.539-14.557-1.2a7.379,7.379,0,0,0-6.2,4.535s-3.152-1.2-3.845,2c0,0-2.307,6.68,0,12.692s3.073,6.68,3.073,6.68-1.618-7.46,7.607-8.128,17.689-6.447,18.458.9,1.614,4.029,1.614,4.029S824.375,160.213,815.535,157.207Z" transform="translate(183.886 1079.412)" fill="#2f2e41"/><path d="M798.529,314.443a45.256,45.256,0,0,1-63.338,4.577l3.883-10.835a11.652,11.652,0,0,1,9.9-6.8l2.47-.152,5.89-5.08s15.871-.567,15.636-.838l9.614,5.783-.008-.04,3.779.231a11.647,11.647,0,0,1,9.9,6.8Z" transform="translate(219.844 972.175)" fill="#fe6680"/></g><text transform="translate(832.728 1299)" fill="#ffca28" font-size="24" font-family="FontAwesome6Pro-Solid, 'Font Awesome \36  Pro'"><tspan x="0" y="0"></tspan></text></g></g></g></svg>