<svg xmlns="http://www.w3.org/2000/svg" xmlns:xlink="http://www.w3.org/1999/xlink" viewBox="69.36 0 215.96 292.82">
  <defs>
    <filter id="Rectángulo_6" x="0" y="307.55" width="340" height="205" filterUnits="userSpaceOnUse">
      <feOffset dy="3" input="SourceAlpha"/>
      <feGaussianBlur stdDeviation="3" result="blur"/>
      <feFlood flood-opacity="0.161"/>
      <feComposite operator="in" in2="blur"/>
      <feComposite in="SourceGraphic"/>
    </filter>
  </defs>
  <g id="Grupo_24" data-name="Grupo 24" transform="translate(-893 -2529.45)">
    <g id="Grupo_18" data-name="Grupo 18" transform="matrix(0.951, 0.309, -0.309, 0.951, 1031.694, -278.985)">
      <circle id="Elipse_22" data-name="Elipse 22" cx="45.272" cy="45.272" r="45.272" transform="translate(951.009 2731.055)" fill="#fff9c4"/>
      <circle id="Elipse_23" data-name="Elipse 23" cx="16.127" cy="16.127" r="16.127" transform="translate(980.565 2748.331)" fill="#ffb8b8"/>
      <path id="Trazado_30" data-name="Trazado 30" d="M418.646,681.448a45.256,45.256,0,0,1-63.338,4.577l3.883-10.835a11.652,11.652,0,0,1,9.9-6.8l2.47-.152,5.89-5.08s15.871-.567,15.636-.838l9.614,5.783-.008-.04,3.779.231a11.647,11.647,0,0,1,9.9,6.8Z" transform="translate(611.474 2124.626)" fill="#fe6680"/>
      <path id="Trazado_31" data-name="Trazado 31" d="M429.143,515.12a35.684,35.684,0,0,0,.155-3.622,17.051,17.051,0,0,0-1.286-6.982,10.728,10.728,0,0,0-5.614-5.423,10.243,10.243,0,0,0-7.679.007,15.468,15.468,0,0,0-7.294-2.656,8.158,8.158,0,0,0-6.954,2.951,11.351,11.351,0,0,1-1.215,1.578c-1.288,1.193-3.247,1.021-4.959.777l2.3,1.975-2.79.729,3.255,1.974c-3.15,1.891-4.582,6.018-4.2,9.766a20.652,20.652,0,0,0,4.119,9.677c.817-1.724.641-3.787.627-5.729a12.968,12.968,0,0,1,.115-1.884c6.921,1.659,14.153,2.724,21.487.089l1.472-3.6.62.063.853,3.542c1.933.79,3.87,1.481,5.808.755.094.547.151,1.105.195,1.642.166-.642.311-1.289.441-1.938a5.727,5.727,0,0,0,.734-.469A15.769,15.769,0,0,0,429.143,515.12Z" transform="translate(584.564 2243.682)" fill="#2f2e41"/>
    </g>
    <g id="Grupo_19" data-name="Grupo 19" transform="translate(-653.286 31.075) rotate(-19)">
      <circle id="Elipse_24" data-name="Elipse 24" cx="45.272" cy="45.272" r="45.272" transform="translate(688.215 3098.456)" fill="#b3e5fc"/>
      <circle id="ab6171fa-7d69-4734-b81c-8dff60f9761b" cx="13.734" cy="13.734" r="13.734" transform="translate(718.756 3120.955)" fill="#9e616a"/>
      <path id="Trazado_32" data-name="Trazado 32" d="M807.363,1072.992a45.256,45.256,0,0,1-63.338,4.577l3.883-10.835a11.652,11.652,0,0,1,9.9-6.8l2.47-.152,5.89-5.08s15.871-.567,15.636-.838l9.614,5.783-.008-.04,3.779.231a11.647,11.647,0,0,1,9.9,6.8Z" transform="translate(-40.496 2100.627)" fill="#fe6680"/>
      <path id="Trazado_33" data-name="Trazado 33" d="M824.7,929.084a9.874,9.874,0,0,0-3.687-7.207,8.659,8.659,0,0,1-2.256-2.04,13.958,13.958,0,0,1-.766-1.911,6.407,6.407,0,0,0-6.755-3.463,10.148,10.148,0,0,0-6.6,4.416,4.492,4.492,0,0,0-6.281,5.206c-1.4-1.124-3.654-.225-4.525,1.341a8.326,8.326,0,0,0-.474,5.257,49.666,49.666,0,0,0,2.334,9.411c1.359-1.2,1.276-3.376,1.109-5.219-.173-1.914-.069-4.251,1.6-5.2,1.617-.912,3.58.089,5.363.608a10.135,10.135,0,0,0,8.384-1.319,26.4,26.4,0,0,1,2.757-1.921,3.254,3.254,0,0,1,3.208-.057A4.481,4.481,0,0,1,819.6,929.6l2.06,6.984a9.874,9.874,0,0,0,3.038-7.5Z" transform="translate(-75.758 2200.72)" fill="#2f2e41"/>
    </g>
    <g id="Grupo_20" data-name="Grupo 20" transform="translate(-1115.072 971.374) rotate(-37)">
      <circle id="Elipse_25" data-name="Elipse 25" cx="45.272" cy="45.272" r="45.272" transform="translate(688.644 2538.082)" fill="#dcedc8"/>
      <path id="Trazado_34" data-name="Trazado 34" d="M1153.225,165.483a42.539,42.539,0,0,1-3.035,9.686c-7.986,16.894,14.757,11.388,22.884,11.388,8.886,0,17.388,4.673,16.09-16.09-.555-8.869-7.2-16.09-16.09-16.09C1165.484,154.377,1154.812,157.75,1153.225,165.483Z" transform="translate(-437.786 2400.163)" fill="#2f2e41"/>
      <circle id="Elipse_26" data-name="Elipse 26" cx="13.075" cy="13.075" r="13.075" transform="translate(720.882 2560.566)" fill="#ffb6b6"/>
      <path id="Trazado_35" data-name="Trazado 35" d="M1194.314,314.443a45.256,45.256,0,0,1-63.338,4.577l3.883-10.835a11.652,11.652,0,0,1,9.9-6.8l2.47-.152,5.89-5.08s15.871-.567,15.636-.838l9.614,5.783-.008-.04,3.779.231a11.647,11.647,0,0,1,9.9,6.8Z" transform="translate(-425.198 2299.013)" fill="#fe6680"/>
    </g>
  </g>
</svg>