<svg xmlns="http://www.w3.org/2000/svg" viewBox="0 0 248.61 123.28" preserveAspectRatio="xMidYMid meet">
  <path d="M80.41,91.42H62.35L38.89,64.51H24.28V91.42H9.1V10.8c12.77,0,25.53.11,38.3.11,19,.12,29,12.77,29,26.68,0,11-5.06,22.2-20.36,25.3L80.41,90.38ZM24.28,25.06V50.82H47.4c9.66,0,13.8-6.44,13.8-12.88S56.94,25.06,47.4,25.06Z"/>
  <path d="M93.41,68.07c.92,7,7,12.08,16.91,12.08,5.17,0,12-2,15.18-5.29l9,8.85c-6,6.21-15.76,9.2-24.38,9.2-19.55,0-31.17-12.07-31.17-30.24C78.92,45.41,90.65,33,109.05,33c19,0,30.82,11.73,28.64,35.08Zm30.82-11.62c-.92-7.36-6.67-11-14.72-11-7.59,0-13.8,3.68-15.87,11Z"/>
  <path d="M223.59,35.53,213.24,60.37,207.38,76,202,60l-8.62-24.49H165.08V31.73c0-6.9,3.68-10.12,8.51-10.12a15.6,15.6,0,0,1,8.63,3l5.17-10.47a27.33,27.33,0,0,0-14.72-4.6c-11.38,0-21.62,7-21.62,22.2v3.79H140.47V47.83h10.58V91.42h14V47.83h16.68V47.2l17.91,44.11-10.58,24.61H204.5l34.62-80.39Z"/>
</svg>
